<mxfile host="app.diagrams.net" modified="2022-02-11T06:53:53.842Z" agent="5.0 (Windows NT 10.0; Win64; x64) AppleWebKit/537.36 (KHTML, like Gecko) Chrome/98.0.4758.82 Safari/537.36" etag="vd4QNOv1rjx92K6QkUGl" version="16.5.6" type="github">
  <diagram id="C5RBs43oDa-KdzZeNtuy" name="Page-1">
    <mxGraphModel dx="1298" dy="1843" grid="1" gridSize="10" guides="1" tooltips="1" connect="1" arrows="1" fold="1" page="1" pageScale="1" pageWidth="827" pageHeight="1169" math="0" shadow="0">
      <root>
        <mxCell id="WIyWlLk6GJQsqaUBKTNV-0" />
        <mxCell id="WIyWlLk6GJQsqaUBKTNV-1" parent="WIyWlLk6GJQsqaUBKTNV-0" />
        <mxCell id="NNS9rTZBIJs-F4w_Cgt3-2" value="" style="edgeStyle=none;rounded=0;orthogonalLoop=1;jettySize=auto;html=1;" edge="1" parent="WIyWlLk6GJQsqaUBKTNV-1" source="NNS9rTZBIJs-F4w_Cgt3-0" target="NNS9rTZBIJs-F4w_Cgt3-1">
          <mxGeometry relative="1" as="geometry" />
        </mxCell>
        <mxCell id="NNS9rTZBIJs-F4w_Cgt3-6" style="edgeStyle=none;rounded=0;orthogonalLoop=1;jettySize=auto;html=1;entryX=1;entryY=0.25;entryDx=0;entryDy=0;" edge="1" parent="WIyWlLk6GJQsqaUBKTNV-1" source="NNS9rTZBIJs-F4w_Cgt3-0" target="NNS9rTZBIJs-F4w_Cgt3-3">
          <mxGeometry relative="1" as="geometry" />
        </mxCell>
        <mxCell id="NNS9rTZBIJs-F4w_Cgt3-7" style="edgeStyle=none;rounded=0;orthogonalLoop=1;jettySize=auto;html=1;" edge="1" parent="WIyWlLk6GJQsqaUBKTNV-1" source="NNS9rTZBIJs-F4w_Cgt3-0" target="NNS9rTZBIJs-F4w_Cgt3-4">
          <mxGeometry relative="1" as="geometry" />
        </mxCell>
        <mxCell id="NNS9rTZBIJs-F4w_Cgt3-0" value="Start" style="ellipse;whiteSpace=wrap;html=1;" vertex="1" parent="WIyWlLk6GJQsqaUBKTNV-1">
          <mxGeometry x="310" y="-820" width="120" height="80" as="geometry" />
        </mxCell>
        <mxCell id="NNS9rTZBIJs-F4w_Cgt3-1" value="What You Want to do?" style="rhombus;whiteSpace=wrap;html=1;" vertex="1" parent="WIyWlLk6GJQsqaUBKTNV-1">
          <mxGeometry x="310" y="-710" width="120" height="100" as="geometry" />
        </mxCell>
        <mxCell id="NNS9rTZBIJs-F4w_Cgt3-18" style="edgeStyle=none;rounded=0;orthogonalLoop=1;jettySize=auto;html=1;entryX=0.457;entryY=0.01;entryDx=0;entryDy=0;entryPerimeter=0;" edge="1" parent="WIyWlLk6GJQsqaUBKTNV-1" source="NNS9rTZBIJs-F4w_Cgt3-3" target="NNS9rTZBIJs-F4w_Cgt3-8">
          <mxGeometry relative="1" as="geometry" />
        </mxCell>
        <mxCell id="NNS9rTZBIJs-F4w_Cgt3-3" value="Register an account&amp;nbsp;" style="rounded=1;whiteSpace=wrap;html=1;" vertex="1" parent="WIyWlLk6GJQsqaUBKTNV-1">
          <mxGeometry x="70" y="-780" width="130" height="40" as="geometry" />
        </mxCell>
        <mxCell id="NNS9rTZBIJs-F4w_Cgt3-22" style="edgeStyle=none;rounded=0;orthogonalLoop=1;jettySize=auto;html=1;entryX=0.462;entryY=0.25;entryDx=0;entryDy=0;entryPerimeter=0;" edge="1" parent="WIyWlLk6GJQsqaUBKTNV-1" source="NNS9rTZBIJs-F4w_Cgt3-4" target="NNS9rTZBIJs-F4w_Cgt3-11">
          <mxGeometry relative="1" as="geometry" />
        </mxCell>
        <mxCell id="NNS9rTZBIJs-F4w_Cgt3-24" style="edgeStyle=none;rounded=0;orthogonalLoop=1;jettySize=auto;html=1;entryX=0.449;entryY=0.03;entryDx=0;entryDy=0;entryPerimeter=0;" edge="1" parent="WIyWlLk6GJQsqaUBKTNV-1" source="NNS9rTZBIJs-F4w_Cgt3-4" target="NNS9rTZBIJs-F4w_Cgt3-11">
          <mxGeometry relative="1" as="geometry" />
        </mxCell>
        <mxCell id="NNS9rTZBIJs-F4w_Cgt3-4" value="Login to account" style="rounded=1;whiteSpace=wrap;html=1;" vertex="1" parent="WIyWlLk6GJQsqaUBKTNV-1">
          <mxGeometry x="530" y="-790" width="120" height="40" as="geometry" />
        </mxCell>
        <mxCell id="NNS9rTZBIJs-F4w_Cgt3-19" style="edgeStyle=none;rounded=0;orthogonalLoop=1;jettySize=auto;html=1;entryX=0.5;entryY=0;entryDx=0;entryDy=0;" edge="1" parent="WIyWlLk6GJQsqaUBKTNV-1" source="NNS9rTZBIJs-F4w_Cgt3-8" target="NNS9rTZBIJs-F4w_Cgt3-9">
          <mxGeometry relative="1" as="geometry" />
        </mxCell>
        <mxCell id="NNS9rTZBIJs-F4w_Cgt3-8" value="Enter account Name&amp;nbsp;" style="rounded=1;whiteSpace=wrap;html=1;" vertex="1" parent="WIyWlLk6GJQsqaUBKTNV-1">
          <mxGeometry x="70" y="-700" width="140" height="40" as="geometry" />
        </mxCell>
        <mxCell id="NNS9rTZBIJs-F4w_Cgt3-20" style="edgeStyle=none;rounded=0;orthogonalLoop=1;jettySize=auto;html=1;" edge="1" parent="WIyWlLk6GJQsqaUBKTNV-1" source="NNS9rTZBIJs-F4w_Cgt3-9" target="NNS9rTZBIJs-F4w_Cgt3-10">
          <mxGeometry relative="1" as="geometry" />
        </mxCell>
        <mxCell id="NNS9rTZBIJs-F4w_Cgt3-9" value="Enter Phone Number" style="rounded=1;whiteSpace=wrap;html=1;" vertex="1" parent="WIyWlLk6GJQsqaUBKTNV-1">
          <mxGeometry x="70" y="-624" width="140" height="40" as="geometry" />
        </mxCell>
        <mxCell id="NNS9rTZBIJs-F4w_Cgt3-21" style="edgeStyle=none;rounded=0;orthogonalLoop=1;jettySize=auto;html=1;entryX=0.5;entryY=0;entryDx=0;entryDy=0;" edge="1" parent="WIyWlLk6GJQsqaUBKTNV-1" source="NNS9rTZBIJs-F4w_Cgt3-10" target="NNS9rTZBIJs-F4w_Cgt3-17">
          <mxGeometry relative="1" as="geometry" />
        </mxCell>
        <mxCell id="NNS9rTZBIJs-F4w_Cgt3-10" value="Enter Password" style="rounded=1;whiteSpace=wrap;html=1;" vertex="1" parent="WIyWlLk6GJQsqaUBKTNV-1">
          <mxGeometry x="70" y="-550" width="140" height="40" as="geometry" />
        </mxCell>
        <mxCell id="NNS9rTZBIJs-F4w_Cgt3-23" style="edgeStyle=none;rounded=0;orthogonalLoop=1;jettySize=auto;html=1;entryX=0.5;entryY=0;entryDx=0;entryDy=0;" edge="1" parent="WIyWlLk6GJQsqaUBKTNV-1" source="NNS9rTZBIJs-F4w_Cgt3-11" target="NNS9rTZBIJs-F4w_Cgt3-12">
          <mxGeometry relative="1" as="geometry" />
        </mxCell>
        <mxCell id="NNS9rTZBIJs-F4w_Cgt3-11" value="Enter Phone Number" style="rounded=1;whiteSpace=wrap;html=1;" vertex="1" parent="WIyWlLk6GJQsqaUBKTNV-1">
          <mxGeometry x="530" y="-720" width="130" height="40" as="geometry" />
        </mxCell>
        <mxCell id="NNS9rTZBIJs-F4w_Cgt3-33" style="edgeStyle=orthogonalEdgeStyle;rounded=0;orthogonalLoop=1;jettySize=auto;html=1;entryX=0.75;entryY=0;entryDx=0;entryDy=0;" edge="1" parent="WIyWlLk6GJQsqaUBKTNV-1" source="NNS9rTZBIJs-F4w_Cgt3-12" target="NNS9rTZBIJs-F4w_Cgt3-30">
          <mxGeometry relative="1" as="geometry" />
        </mxCell>
        <mxCell id="NNS9rTZBIJs-F4w_Cgt3-34" style="edgeStyle=orthogonalEdgeStyle;rounded=0;orthogonalLoop=1;jettySize=auto;html=1;entryX=0.385;entryY=0;entryDx=0;entryDy=0;entryPerimeter=0;" edge="1" parent="WIyWlLk6GJQsqaUBKTNV-1" source="NNS9rTZBIJs-F4w_Cgt3-12" target="NNS9rTZBIJs-F4w_Cgt3-29">
          <mxGeometry relative="1" as="geometry" />
        </mxCell>
        <mxCell id="NNS9rTZBIJs-F4w_Cgt3-37" style="edgeStyle=orthogonalEdgeStyle;rounded=0;orthogonalLoop=1;jettySize=auto;html=1;entryX=0.25;entryY=0;entryDx=0;entryDy=0;" edge="1" parent="WIyWlLk6GJQsqaUBKTNV-1" source="NNS9rTZBIJs-F4w_Cgt3-12" target="NNS9rTZBIJs-F4w_Cgt3-27">
          <mxGeometry relative="1" as="geometry" />
        </mxCell>
        <mxCell id="NNS9rTZBIJs-F4w_Cgt3-38" style="edgeStyle=orthogonalEdgeStyle;rounded=0;orthogonalLoop=1;jettySize=auto;html=1;entryX=0.391;entryY=-0.08;entryDx=0;entryDy=0;entryPerimeter=0;" edge="1" parent="WIyWlLk6GJQsqaUBKTNV-1" source="NNS9rTZBIJs-F4w_Cgt3-12" target="NNS9rTZBIJs-F4w_Cgt3-26">
          <mxGeometry relative="1" as="geometry" />
        </mxCell>
        <mxCell id="NNS9rTZBIJs-F4w_Cgt3-111" style="edgeStyle=orthogonalEdgeStyle;rounded=0;orthogonalLoop=1;jettySize=auto;html=1;exitX=0.5;exitY=1;exitDx=0;exitDy=0;" edge="1" parent="WIyWlLk6GJQsqaUBKTNV-1" source="NNS9rTZBIJs-F4w_Cgt3-12" target="NNS9rTZBIJs-F4w_Cgt3-28">
          <mxGeometry relative="1" as="geometry" />
        </mxCell>
        <mxCell id="NNS9rTZBIJs-F4w_Cgt3-12" value="Enter Password" style="rounded=1;whiteSpace=wrap;html=1;" vertex="1" parent="WIyWlLk6GJQsqaUBKTNV-1">
          <mxGeometry x="530" y="-640" width="130" height="40" as="geometry" />
        </mxCell>
        <mxCell id="NNS9rTZBIJs-F4w_Cgt3-17" value="Account Sucessfully&lt;br&gt;&amp;nbsp;Registered" style="shape=hexagon;perimeter=hexagonPerimeter2;whiteSpace=wrap;html=1;fixedSize=1;" vertex="1" parent="WIyWlLk6GJQsqaUBKTNV-1">
          <mxGeometry x="80" y="-470" width="120" height="80" as="geometry" />
        </mxCell>
        <mxCell id="NNS9rTZBIJs-F4w_Cgt3-43" style="edgeStyle=orthogonalEdgeStyle;rounded=0;orthogonalLoop=1;jettySize=auto;html=1;entryX=0.5;entryY=0;entryDx=0;entryDy=0;" edge="1" parent="WIyWlLk6GJQsqaUBKTNV-1" source="NNS9rTZBIJs-F4w_Cgt3-26" target="NNS9rTZBIJs-F4w_Cgt3-41">
          <mxGeometry relative="1" as="geometry" />
        </mxCell>
        <mxCell id="NNS9rTZBIJs-F4w_Cgt3-26" value="&amp;nbsp;Depositing Cash" style="rounded=1;whiteSpace=wrap;html=1;" vertex="1" parent="WIyWlLk6GJQsqaUBKTNV-1">
          <mxGeometry x="480" y="-550" width="130" height="40" as="geometry" />
        </mxCell>
        <mxCell id="NNS9rTZBIJs-F4w_Cgt3-47" style="edgeStyle=orthogonalEdgeStyle;rounded=0;orthogonalLoop=1;jettySize=auto;html=1;entryX=0.5;entryY=0;entryDx=0;entryDy=0;" edge="1" parent="WIyWlLk6GJQsqaUBKTNV-1" source="NNS9rTZBIJs-F4w_Cgt3-27" target="NNS9rTZBIJs-F4w_Cgt3-46">
          <mxGeometry relative="1" as="geometry" />
        </mxCell>
        <mxCell id="NNS9rTZBIJs-F4w_Cgt3-27" value="Cash Withdrawl" style="rounded=1;whiteSpace=wrap;html=1;" vertex="1" parent="WIyWlLk6GJQsqaUBKTNV-1">
          <mxGeometry x="650" y="-550" width="130" height="40" as="geometry" />
        </mxCell>
        <mxCell id="NNS9rTZBIJs-F4w_Cgt3-53" style="edgeStyle=orthogonalEdgeStyle;rounded=0;orthogonalLoop=1;jettySize=auto;html=1;exitX=0.5;exitY=1;exitDx=0;exitDy=0;entryX=0.5;entryY=0;entryDx=0;entryDy=0;" edge="1" parent="WIyWlLk6GJQsqaUBKTNV-1" source="NNS9rTZBIJs-F4w_Cgt3-28" target="NNS9rTZBIJs-F4w_Cgt3-49">
          <mxGeometry relative="1" as="geometry" />
        </mxCell>
        <mxCell id="NNS9rTZBIJs-F4w_Cgt3-28" value="Online Transfer" style="rounded=1;whiteSpace=wrap;html=1;" vertex="1" parent="WIyWlLk6GJQsqaUBKTNV-1">
          <mxGeometry x="827" y="-550" width="130" height="40" as="geometry" />
        </mxCell>
        <mxCell id="NNS9rTZBIJs-F4w_Cgt3-57" style="edgeStyle=orthogonalEdgeStyle;rounded=0;orthogonalLoop=1;jettySize=auto;html=1;entryX=0.5;entryY=0;entryDx=0;entryDy=0;" edge="1" parent="WIyWlLk6GJQsqaUBKTNV-1" source="NNS9rTZBIJs-F4w_Cgt3-29" target="NNS9rTZBIJs-F4w_Cgt3-55">
          <mxGeometry relative="1" as="geometry" />
        </mxCell>
        <mxCell id="NNS9rTZBIJs-F4w_Cgt3-29" value="Password Change" style="rounded=1;whiteSpace=wrap;html=1;" vertex="1" parent="WIyWlLk6GJQsqaUBKTNV-1">
          <mxGeometry x="1000" y="-550" width="130" height="40" as="geometry" />
        </mxCell>
        <mxCell id="NNS9rTZBIJs-F4w_Cgt3-40" style="edgeStyle=orthogonalEdgeStyle;rounded=0;orthogonalLoop=1;jettySize=auto;html=1;entryX=0.5;entryY=0;entryDx=0;entryDy=0;" edge="1" parent="WIyWlLk6GJQsqaUBKTNV-1" source="NNS9rTZBIJs-F4w_Cgt3-30" target="NNS9rTZBIJs-F4w_Cgt3-39">
          <mxGeometry relative="1" as="geometry" />
        </mxCell>
        <mxCell id="NNS9rTZBIJs-F4w_Cgt3-30" value="Balance Enquiry" style="rounded=1;whiteSpace=wrap;html=1;" vertex="1" parent="WIyWlLk6GJQsqaUBKTNV-1">
          <mxGeometry x="315" y="-550" width="130" height="40" as="geometry" />
        </mxCell>
        <mxCell id="NNS9rTZBIJs-F4w_Cgt3-100" style="edgeStyle=orthogonalEdgeStyle;rounded=0;orthogonalLoop=1;jettySize=auto;html=1;exitX=0.5;exitY=1;exitDx=0;exitDy=0;entryX=0.42;entryY=-0.025;entryDx=0;entryDy=0;entryPerimeter=0;" edge="1" parent="WIyWlLk6GJQsqaUBKTNV-1" source="NNS9rTZBIJs-F4w_Cgt3-39" target="NNS9rTZBIJs-F4w_Cgt3-63">
          <mxGeometry relative="1" as="geometry" />
        </mxCell>
        <mxCell id="NNS9rTZBIJs-F4w_Cgt3-39" value="Total Amount Visible in Account&lt;br&gt;" style="ellipse;whiteSpace=wrap;html=1;" vertex="1" parent="WIyWlLk6GJQsqaUBKTNV-1">
          <mxGeometry x="320" y="-460" width="120" height="80" as="geometry" />
        </mxCell>
        <mxCell id="NNS9rTZBIJs-F4w_Cgt3-44" style="edgeStyle=orthogonalEdgeStyle;rounded=0;orthogonalLoop=1;jettySize=auto;html=1;entryX=0.5;entryY=0;entryDx=0;entryDy=0;" edge="1" parent="WIyWlLk6GJQsqaUBKTNV-1" source="NNS9rTZBIJs-F4w_Cgt3-41" target="NNS9rTZBIJs-F4w_Cgt3-42">
          <mxGeometry relative="1" as="geometry" />
        </mxCell>
        <mxCell id="NNS9rTZBIJs-F4w_Cgt3-41" value="Enter the Amount" style="rounded=1;whiteSpace=wrap;html=1;" vertex="1" parent="WIyWlLk6GJQsqaUBKTNV-1">
          <mxGeometry x="480" y="-480" width="130" height="40" as="geometry" />
        </mxCell>
        <mxCell id="NNS9rTZBIJs-F4w_Cgt3-46" value="Enter the amount" style="rounded=1;whiteSpace=wrap;html=1;" vertex="1" parent="WIyWlLk6GJQsqaUBKTNV-1">
          <mxGeometry x="655" y="-470" width="130" height="40" as="geometry" />
        </mxCell>
        <mxCell id="NNS9rTZBIJs-F4w_Cgt3-54" style="edgeStyle=orthogonalEdgeStyle;rounded=0;orthogonalLoop=1;jettySize=auto;html=1;" edge="1" parent="WIyWlLk6GJQsqaUBKTNV-1" source="NNS9rTZBIJs-F4w_Cgt3-49" target="NNS9rTZBIJs-F4w_Cgt3-52">
          <mxGeometry relative="1" as="geometry" />
        </mxCell>
        <mxCell id="NNS9rTZBIJs-F4w_Cgt3-49" value="Phone number to transfer the balance" style="rounded=1;whiteSpace=wrap;html=1;" vertex="1" parent="WIyWlLk6GJQsqaUBKTNV-1">
          <mxGeometry x="827" y="-470" width="130" height="40" as="geometry" />
        </mxCell>
        <mxCell id="NNS9rTZBIJs-F4w_Cgt3-102" style="edgeStyle=orthogonalEdgeStyle;rounded=0;orthogonalLoop=1;jettySize=auto;html=1;exitX=0.5;exitY=1;exitDx=0;exitDy=0;" edge="1" parent="WIyWlLk6GJQsqaUBKTNV-1" source="NNS9rTZBIJs-F4w_Cgt3-52" target="NNS9rTZBIJs-F4w_Cgt3-66">
          <mxGeometry relative="1" as="geometry" />
        </mxCell>
        <mxCell id="NNS9rTZBIJs-F4w_Cgt3-103" style="edgeStyle=orthogonalEdgeStyle;rounded=0;orthogonalLoop=1;jettySize=auto;html=1;exitX=0.5;exitY=1;exitDx=0;exitDy=0;entryX=0.75;entryY=0;entryDx=0;entryDy=0;" edge="1" parent="WIyWlLk6GJQsqaUBKTNV-1" source="NNS9rTZBIJs-F4w_Cgt3-52" target="NNS9rTZBIJs-F4w_Cgt3-64">
          <mxGeometry relative="1" as="geometry" />
        </mxCell>
        <mxCell id="NNS9rTZBIJs-F4w_Cgt3-104" style="edgeStyle=orthogonalEdgeStyle;rounded=0;orthogonalLoop=1;jettySize=auto;html=1;exitX=0.5;exitY=1;exitDx=0;exitDy=0;entryX=0.5;entryY=0;entryDx=0;entryDy=0;" edge="1" parent="WIyWlLk6GJQsqaUBKTNV-1" source="NNS9rTZBIJs-F4w_Cgt3-52" target="NNS9rTZBIJs-F4w_Cgt3-65">
          <mxGeometry relative="1" as="geometry" />
        </mxCell>
        <mxCell id="NNS9rTZBIJs-F4w_Cgt3-52" value="Enter the amount the transfer" style="ellipse;whiteSpace=wrap;html=1;" vertex="1" parent="WIyWlLk6GJQsqaUBKTNV-1">
          <mxGeometry x="832" y="-400" width="120" height="80" as="geometry" />
        </mxCell>
        <mxCell id="NNS9rTZBIJs-F4w_Cgt3-58" style="edgeStyle=orthogonalEdgeStyle;rounded=0;orthogonalLoop=1;jettySize=auto;html=1;entryX=0.5;entryY=0;entryDx=0;entryDy=0;" edge="1" parent="WIyWlLk6GJQsqaUBKTNV-1" source="NNS9rTZBIJs-F4w_Cgt3-55" target="NNS9rTZBIJs-F4w_Cgt3-56">
          <mxGeometry relative="1" as="geometry" />
        </mxCell>
        <mxCell id="NNS9rTZBIJs-F4w_Cgt3-55" value="Please enter your new Password" style="rounded=1;whiteSpace=wrap;html=1;" vertex="1" parent="WIyWlLk6GJQsqaUBKTNV-1">
          <mxGeometry x="1000" y="-470" width="130" height="40" as="geometry" />
        </mxCell>
        <mxCell id="NNS9rTZBIJs-F4w_Cgt3-105" style="edgeStyle=orthogonalEdgeStyle;rounded=0;orthogonalLoop=1;jettySize=auto;html=1;exitX=0.5;exitY=1;exitDx=0;exitDy=0;entryX=1;entryY=0.857;entryDx=0;entryDy=0;entryPerimeter=0;" edge="1" parent="WIyWlLk6GJQsqaUBKTNV-1" source="NNS9rTZBIJs-F4w_Cgt3-56" target="NNS9rTZBIJs-F4w_Cgt3-63">
          <mxGeometry relative="1" as="geometry" />
        </mxCell>
        <mxCell id="NNS9rTZBIJs-F4w_Cgt3-56" value="Password Change sucessfully" style="ellipse;whiteSpace=wrap;html=1;" vertex="1" parent="WIyWlLk6GJQsqaUBKTNV-1">
          <mxGeometry x="1010" y="-400" width="120" height="80" as="geometry" />
        </mxCell>
        <mxCell id="NNS9rTZBIJs-F4w_Cgt3-110" value="N" style="edgeStyle=orthogonalEdgeStyle;rounded=0;orthogonalLoop=1;jettySize=auto;html=1;exitX=0.5;exitY=1;exitDx=0;exitDy=0;" edge="1" parent="WIyWlLk6GJQsqaUBKTNV-1" source="NNS9rTZBIJs-F4w_Cgt3-63">
          <mxGeometry relative="1" as="geometry">
            <mxPoint x="490" as="targetPoint" />
          </mxGeometry>
        </mxCell>
        <mxCell id="NNS9rTZBIJs-F4w_Cgt3-123" value="Y" style="edgeStyle=elbowEdgeStyle;rounded=0;orthogonalLoop=1;jettySize=auto;html=1;exitX=0.5;exitY=0;exitDx=0;exitDy=0;entryX=0;entryY=0.5;entryDx=0;entryDy=0;" edge="1" parent="WIyWlLk6GJQsqaUBKTNV-1" source="NNS9rTZBIJs-F4w_Cgt3-63" target="NNS9rTZBIJs-F4w_Cgt3-30">
          <mxGeometry relative="1" as="geometry" />
        </mxCell>
        <mxCell id="NNS9rTZBIJs-F4w_Cgt3-63" value="&lt;span&gt;Do you want to continue the Transaction [y/N]&lt;/span&gt;" style="rounded=0;whiteSpace=wrap;html=1;" vertex="1" parent="WIyWlLk6GJQsqaUBKTNV-1">
          <mxGeometry x="160" y="-250" width="200" height="140" as="geometry" />
        </mxCell>
        <mxCell id="NNS9rTZBIJs-F4w_Cgt3-118" style="edgeStyle=none;rounded=0;orthogonalLoop=1;jettySize=auto;html=1;exitX=0.5;exitY=1;exitDx=0;exitDy=0;" edge="1" parent="WIyWlLk6GJQsqaUBKTNV-1" source="NNS9rTZBIJs-F4w_Cgt3-64">
          <mxGeometry relative="1" as="geometry">
            <mxPoint x="607" y="-130" as="targetPoint" />
          </mxGeometry>
        </mxCell>
        <mxCell id="NNS9rTZBIJs-F4w_Cgt3-64" value="Account No not Registered&amp;nbsp;" style="rounded=1;whiteSpace=wrap;html=1;" vertex="1" parent="WIyWlLk6GJQsqaUBKTNV-1">
          <mxGeometry x="530" y="-230" width="155" height="50" as="geometry" />
        </mxCell>
        <mxCell id="NNS9rTZBIJs-F4w_Cgt3-117" style="edgeStyle=none;rounded=0;orthogonalLoop=1;jettySize=auto;html=1;" edge="1" parent="WIyWlLk6GJQsqaUBKTNV-1" source="NNS9rTZBIJs-F4w_Cgt3-65">
          <mxGeometry relative="1" as="geometry">
            <mxPoint x="800" y="-130" as="targetPoint" />
          </mxGeometry>
        </mxCell>
        <mxCell id="NNS9rTZBIJs-F4w_Cgt3-65" value="Insufficient balance" style="rounded=1;whiteSpace=wrap;html=1;" vertex="1" parent="WIyWlLk6GJQsqaUBKTNV-1">
          <mxGeometry x="720" y="-230" width="160" height="50" as="geometry" />
        </mxCell>
        <mxCell id="NNS9rTZBIJs-F4w_Cgt3-116" style="edgeStyle=none;rounded=0;orthogonalLoop=1;jettySize=auto;html=1;exitX=0.5;exitY=1;exitDx=0;exitDy=0;" edge="1" parent="WIyWlLk6GJQsqaUBKTNV-1" source="NNS9rTZBIJs-F4w_Cgt3-66">
          <mxGeometry relative="1" as="geometry">
            <mxPoint x="994.5" y="-130" as="targetPoint" />
          </mxGeometry>
        </mxCell>
        <mxCell id="NNS9rTZBIJs-F4w_Cgt3-66" value="You have sucessfully transfered" style="rounded=1;whiteSpace=wrap;html=1;" vertex="1" parent="WIyWlLk6GJQsqaUBKTNV-1">
          <mxGeometry x="930" y="-230" width="130" height="50" as="geometry" />
        </mxCell>
        <mxCell id="NNS9rTZBIJs-F4w_Cgt3-99" style="edgeStyle=orthogonalEdgeStyle;rounded=0;orthogonalLoop=1;jettySize=auto;html=1;exitX=0.5;exitY=1;exitDx=0;exitDy=0;entryX=0.75;entryY=0;entryDx=0;entryDy=0;" edge="1" parent="WIyWlLk6GJQsqaUBKTNV-1" source="NNS9rTZBIJs-F4w_Cgt3-87" target="NNS9rTZBIJs-F4w_Cgt3-63">
          <mxGeometry relative="1" as="geometry" />
        </mxCell>
        <mxCell id="NNS9rTZBIJs-F4w_Cgt3-87" value="&lt;span&gt;You have withdrawn amount&lt;/span&gt;" style="rounded=1;whiteSpace=wrap;html=1;" vertex="1" parent="WIyWlLk6GJQsqaUBKTNV-1">
          <mxGeometry x="655" y="-390" width="120" height="60" as="geometry" />
        </mxCell>
        <mxCell id="NNS9rTZBIJs-F4w_Cgt3-101" style="edgeStyle=orthogonalEdgeStyle;rounded=0;orthogonalLoop=1;jettySize=auto;html=1;exitX=0.5;exitY=1;exitDx=0;exitDy=0;" edge="1" parent="WIyWlLk6GJQsqaUBKTNV-1" source="NNS9rTZBIJs-F4w_Cgt3-42">
          <mxGeometry relative="1" as="geometry">
            <mxPoint x="380" y="-340.5" as="targetPoint" />
          </mxGeometry>
        </mxCell>
        <mxCell id="NNS9rTZBIJs-F4w_Cgt3-42" value="Sucessfully Deposited" style="rounded=1;whiteSpace=wrap;html=1;" vertex="1" parent="WIyWlLk6GJQsqaUBKTNV-1">
          <mxGeometry x="480" y="-380" width="130" height="40" as="geometry" />
        </mxCell>
        <mxCell id="NNS9rTZBIJs-F4w_Cgt3-109" value="END" style="ellipse;whiteSpace=wrap;html=1;" vertex="1" parent="WIyWlLk6GJQsqaUBKTNV-1">
          <mxGeometry x="414" width="120" height="90" as="geometry" />
        </mxCell>
      </root>
    </mxGraphModel>
  </diagram>
</mxfile>
